<svg xmlns="http://www.w3.org/2000/svg" version="1.1" xmlns:xlink="http://www.w3.org/1999/xlink" xmlns:svgjs="http://svgjs.com/svgjs" width="1450" height="568" preserveAspectRatio="none" viewBox="0 0 1450 568">
    <g mask="url(&quot;#SvgjsMask4798&quot;)" fill="none">
        <rect width="1450" height="568" x="0" y="0" fill="url(#SvgjsLinearGradient4799)"></rect>
        <path d="M1309 41L953 397" stroke-width="10" stroke="url(#SvgjsLinearGradient4800)" stroke-linecap="round" class="BottomLeft"></path>
        <path d="M575 555L277 853" stroke-width="6" stroke="url(#SvgjsLinearGradient4800)" stroke-linecap="round" class="BottomLeft"></path>
        <path d="M1149 51L1463 -263" stroke-width="8" stroke="url(#SvgjsLinearGradient4801)" stroke-linecap="round" class="TopRight"></path>
        <path d="M1111 84L1398 -203" stroke-width="6" stroke="url(#SvgjsLinearGradient4800)" stroke-linecap="round" class="BottomLeft"></path>
        <path d="M1349 127L1634 -158" stroke-width="8" stroke="url(#SvgjsLinearGradient4800)" stroke-linecap="round" class="BottomLeft"></path>
        <path d="M1087 431L740 778" stroke-width="8" stroke="url(#SvgjsLinearGradient4800)" stroke-linecap="round" class="BottomLeft"></path>
        <path d="M811 455L641 625" stroke-width="10" stroke="url(#SvgjsLinearGradient4801)" stroke-linecap="round" class="TopRight"></path>
        <path d="M1184 524L1386 322" stroke-width="10" stroke="url(#SvgjsLinearGradient4800)" stroke-linecap="round" class="BottomLeft"></path>
        <path d="M104 423L397 130" stroke-width="10" stroke="url(#SvgjsLinearGradient4800)" stroke-linecap="round" class="BottomLeft"></path>
        <path d="M377 174L606 -55" stroke-width="6" stroke="url(#SvgjsLinearGradient4801)" stroke-linecap="round" class="TopRight"></path>
        <path d="M1058 492L904 646" stroke-width="6" stroke="url(#SvgjsLinearGradient4800)" stroke-linecap="round" class="BottomLeft"></path>
        <path d="M1096 462L1440 118" stroke-width="6" stroke="url(#SvgjsLinearGradient4800)" stroke-linecap="round" class="BottomLeft"></path>
        <path d="M143 456L493 106" stroke-width="8" stroke="url(#SvgjsLinearGradient4801)" stroke-linecap="round" class="TopRight"></path>
        <path d="M303 99L450 -48" stroke-width="8" stroke="url(#SvgjsLinearGradient4801)" stroke-linecap="round" class="TopRight"></path>
        <path d="M1404 365L1594 175" stroke-width="8" stroke="url(#SvgjsLinearGradient4800)" stroke-linecap="round" class="BottomLeft"></path>
        <path d="M785 72L485 372" stroke-width="8" stroke="url(#SvgjsLinearGradient4801)" stroke-linecap="round" class="TopRight"></path>
        <path d="M530 181L927 -216" stroke-width="8" stroke="url(#SvgjsLinearGradient4800)" stroke-linecap="round" class="BottomLeft"></path>
        <path d="M1214 178L1564 -172" stroke-width="6" stroke="url(#SvgjsLinearGradient4800)" stroke-linecap="round" class="BottomLeft"></path>
        <path d="M642 293L385 550" stroke-width="10" stroke="url(#SvgjsLinearGradient4801)" stroke-linecap="round" class="TopRight"></path>
        <path d="M1291 472L1600 163" stroke-width="10" stroke="url(#SvgjsLinearGradient4800)" stroke-linecap="round" class="BottomLeft"></path>
        <path d="M882 364L1063 183" stroke-width="6" stroke="url(#SvgjsLinearGradient4800)" stroke-linecap="round" class="BottomLeft"></path>
        <path d="M1338 77L1668 -253" stroke-width="6" stroke="url(#SvgjsLinearGradient4801)" stroke-linecap="round" class="TopRight"></path>
        <path d="M1304 9L1706 -393" stroke-width="6" stroke="url(#SvgjsLinearGradient4800)" stroke-linecap="round" class="BottomLeft"></path>
        <path d="M193 503L-185 881" stroke-width="10" stroke="url(#SvgjsLinearGradient4801)" stroke-linecap="round" class="TopRight"></path>
        <path d="M900 487L633 754" stroke-width="8" stroke="url(#SvgjsLinearGradient4801)" stroke-linecap="round" class="TopRight"></path>
        <path d="M1189 407L808 788" stroke-width="10" stroke="url(#SvgjsLinearGradient4800)" stroke-linecap="round" class="BottomLeft"></path>
        <path d="M1233 253L1391 95" stroke-width="8" stroke="url(#SvgjsLinearGradient4800)" stroke-linecap="round" class="BottomLeft"></path>
        <path d="M21 265L167 119" stroke-width="8" stroke="url(#SvgjsLinearGradient4801)" stroke-linecap="round" class="TopRight"></path>
        <path d="M1287 340L1453 174" stroke-width="10" stroke="url(#SvgjsLinearGradient4801)" stroke-linecap="round" class="TopRight"></path>
        <path d="M1423 88L1165 346" stroke-width="10" stroke="url(#SvgjsLinearGradient4800)" stroke-linecap="round" class="BottomLeft"></path>
        <path d="M11 253L194 70" stroke-width="6" stroke="url(#SvgjsLinearGradient4800)" stroke-linecap="round" class="BottomLeft"></path>
        <path d="M518 447L709 256" stroke-width="8" stroke="url(#SvgjsLinearGradient4801)" stroke-linecap="round" class="TopRight"></path>
        <path d="M603 538L830 311" stroke-width="8" stroke="url(#SvgjsLinearGradient4801)" stroke-linecap="round" class="TopRight"></path>
        <path d="M372 15L696 -309" stroke-width="6" stroke="url(#SvgjsLinearGradient4800)" stroke-linecap="round" class="BottomLeft"></path>
        <path d="M910 124L1236 -202" stroke-width="10" stroke="url(#SvgjsLinearGradient4801)" stroke-linecap="round" class="TopRight"></path>
        <path d="M1079 381L864 596" stroke-width="10" stroke="url(#SvgjsLinearGradient4800)" stroke-linecap="round" class="BottomLeft"></path>
        <path d="M934 139L1154 -81" stroke-width="10" stroke="url(#SvgjsLinearGradient4801)" stroke-linecap="round" class="TopRight"></path>
        <path d="M1219 6L1438 -213" stroke-width="8" stroke="url(#SvgjsLinearGradient4801)" stroke-linecap="round" class="TopRight"></path>
        <path d="M570 88L835 -177" stroke-width="10" stroke="url(#SvgjsLinearGradient4800)" stroke-linecap="round" class="BottomLeft"></path>
    </g>
    <defs>
        <mask id="SvgjsMask4798">
            <rect width="1450" height="568" fill="#ffffff"></rect>
        </mask>
        <linearGradient x1="15.21%" y1="-38.82%" x2="84.79%" y2="138.82%" gradientUnits="userSpaceOnUse" id="SvgjsLinearGradient4799">
            <stop stop-color="rgba(34, 182, 255, 1)" offset="0.47"></stop>
            <stop stop-color="rgba(47, 100, 170, 1)" offset="1"></stop>
        </linearGradient>
        <linearGradient x1="100%" y1="0%" x2="0%" y2="100%" id="SvgjsLinearGradient4800">
            <stop stop-color="rgba(28, 83, 142, 0)" offset="0"></stop>
            <stop stop-color="#1c538e" offset="1"></stop>
        </linearGradient>
        <linearGradient x1="0%" y1="100%" x2="100%" y2="0%" id="SvgjsLinearGradient4801">
            <stop stop-color="rgba(28, 83, 142, 0)" offset="0"></stop>
            <stop stop-color="#1c538e" offset="1"></stop>
        </linearGradient>
    </defs>
</svg>